<svg xmlns="http://www.w3.org/2000/svg" viewBox="0 0 24 24" width="24" height="24"><path d="M12 0C5.371 0 0 1.869 0 4.173v15.653C0 22.131 5.371 24 12 24s12-1.869 12-4.174V4.173C24 1.869 18.629 0 12 0zm10.686 18.68a2.24 2.24 0 01-1.528 1.524C19.317 20.95 15.784 21.391 12 21.391c-3.783 0-7.316-.44-9.157-1.187a2.243 2.243 0 01-1.528-1.524A1.17 1.17 0 012 17.62v-3.239c.447.368.978.678 1.528.935 2.076.931 5.308 1.44 8.472 1.44 3.163 0 6.395-.509 8.471-1.44a5.02 5.02 0 001.529-.935v3.24c0 .293-.117.578-.314.817zM2.002 7.621a2.243 2.243 0 011.528-1.524C5.684 5.35 9.217 4.909 12.999 4.909c3.784 0 7.317.44 9.158 1.187a2.243 2.243 0 011.528 1.524c.136.433.32.578.314.817 0 .24-.178.575-.314.817a2.24 2.24 0 01-1.528 1.524c-1.841.748-5.374 1.188-9.158 1.188-3.783 0-7.316-.44-9.157-1.188a2.243 2.243 0 01-1.528-1.524A1.17 1.17 0 012 8.438a1.17 1.17 0 01.002-.817zm1.997 4.573c2.076.931 5.308 1.44 8.472 1.44 3.163 0 6.395-.509 8.471-1.44.55-.257 1.081-.566 1.528-.935v3.238c0 .293-.117.578-.314.817a2.24 2.24 0 01-1.528 1.524c-1.841.748-5.374 1.188-9.158 1.188-3.783 0-7.316-.44-9.157-1.188a2.243 2.243 0 01-1.528-1.524 1.17 1.17 0 01-.314-.817v-3.24c.447.369.978.678 1.528.935zm18.687-3.42c-.447.369-.978.678-1.528.935-2.076.931-5.308 1.44-8.472 1.44-3.163 0-6.395-.509-8.471-1.44a5.022 5.022 0 01-1.528-.935V8.437c0-.24.178-.575.314-.817a2.24 2.24 0 011.528-1.524C5.684 5.35 9.217 4.909 12.999 4.909c3.784 0 7.317.44 9.158 1.187a2.243 2.243 0 011.528 1.524c.136.433.32.578.314.817a1.17 1.17 0 01-.314.817zm-9.686 1.856c-2.482 0-4.5-2.018-4.5-4.5s2.018-4.5 4.5-4.5 4.5 2.018 4.5 4.5-2.018 4.5-4.5 4.5zm0-7.5c-1.654 0-3 1.346-3 3s1.346 3 3 3 3-1.346 3-3-1.346-3-3-3z"/></svg>
