<svg xmlns="http://www.w3.org/2000/svg" viewBox="0 0 128 128"><path fill="#E44D26" d="M19.882 114.006L10.664 1.564 63.792 1.549 116.921 1.564 107.741 114.006 63.792 126.485z"/><path fill="#F16529" d="M63.792 120.968L99.05 110.201 107.742 10.613 63.792 10.613z"/><path fill="#EBEBEB" d="M63.792 52.57H43.428l-1.4-15.622h21.764V21.655H28.998l.364 4.074 3.774 42.351H63.792v-10.096zM63.792 91.06L63.761 91.069l-18.239-4.92-1.173-13.122H33.215l2.31 25.849 28.267 7.836h.007l.004-.001z"/><path fill="#fff" d="M63.776 52.57v10.096h18.97l-1.68 18.764-17.29 4.92v10.104l28.267-7.835.215-2.415 3.245-36.314.34-4.074H63.776V52.57zM63.792 21.655v15.292h34.162l.271-3.04.596-6.644.364-4.074z"/></svg>
