<svg xmlns="http://www.w3.org/2000/svg" viewBox="0 0 128 128"><path fill="#F7DF1E" d="M1.408 1.408h125.184v125.185H1.408z"/><path fill="#000" d="M116.572 97.908c-.708-4.414-3.534-8.163-11.241-11.634-2.75-1.361-5.859-2.353-6.781-4.605-.345-.373-.475-.571-.475-.992v-.16c.152-1.269.719-2.517 2.279-3.572 2.012-1.024 3.392-1.462 6.894-1.46 3.096.006 5.398.8 6.885 2.37.873.875 1.282 2.045 1.486 3.47h11.107c-.214-5.65-2.246-9.972-6.08-12.685-3.875-2.752-8.774-4.073-15.632-4.073-6.275 0-11.314 1.25-15.125 4.42-3.813 3.083-5.426 7.13-5.426 12.538 0 5.273 1.566 9.159 4.697 11.749 3.616 2.749 7.823 3.614 13.332 4.89 2.822.729 5.271 1.342 6.615 2.09 2.382 1.185 3.214 2.757 3.214 4.482v.535c0 1.394-.417 2.517-1.342 3.468-1.306 1.334-3.397 2.053-6.339 2.053-4.104 0-6.88-1.07-8.62-3.072-1.355-1.466-2.166-3.491-2.491-5.997h-11.237c.306 6.58 2.608 11.16 6.4 14.11 4.214 3.271 10.268 4.894 18.137 4.894 6.719 0 12.197-1.612 15.649-4.851 3.672-3.445 5.525-8.493 5.525-14.584 0-1.435-.153-2.725-.461-3.868zm-51.405-38.44H54.023v58.269h11.137V59.468zm.873-20.062h-12.5c-.001 3.263 0 5.702.001 7.803v.233c.001 1.229 0 2.52 0 4.109h12.5c-.001-3.213 0-5.619-.001-7.723v-.233c-.001-1.281 0-2.574 0-4.189z"/></svg>
