<svg xmlns="http://www.w3.org/2000/svg" viewBox="0 0 256 255"><defs/><path fill="#3776AB" d="M168.31.002c-17.39.082-34.31 1.575-48.31 4.198-21.48 4.094-25.03 11.597-25.03 25.684v18.266h50.06v6.097h-70.28c-14.32 0-26.02 7.872-31.41 21.15-5.766 14.065-6.02 22.69-6.02 40.404 0 17.711 8.433 31.95 22.26 31.95h24.92v-27.72c0-14.35 12.31-26.24 27.27-26.24h50.06c12.51 0 24.16-7.497 27.27-21.14 4.354-18.25 4.65-32.016 0-52.57C205.61 8.743 190.96.2 168.31.002zM150.2 27.47c5.78 0 10.47 4.742 10.47 10.614 0 5.85-4.69 10.56-10.47 10.56-5.78 0-10.47-4.71-10.47-10.56 0-5.872 4.69-10.614 10.47-10.614zM64.27 61.284c5.784 0 10.473 4.773 10.473 10.655 0 5.84-4.69 10.543-10.47 10.543-5.78 0-10.47-4.702-10.47-10.543 0-5.882 4.69-10.655 10.47-10.655zm-23.22 50.013c-5.78 0-10.47 4.742-10.47 10.615 0 5.85 4.69 10.563 10.47 10.563 5.78 0 10.47-4.713 10.47-10.563 0-5.873-4.69-10.615-10.47-10.615zM87.01 129.62c-17.29.08-33.77 1.596-48.77 4.212-21.49 4.097-24.88 11.654-24.88 25.75v18.264h50.06v6.095H1.02C-2.37 183.94-.13 194.55 3.26 208.16c3.96 15.62 7.47 22.69 20.31 31.95 10.02 7.26 28.36 13.36 41.41 13.36h24.92c13.93 0 24.52-11.26 24.52-25.68v-27.72c0-14.34 12.14-26.24 27.1-26.24h50.07c14.3 0 25.03-5.99 31.41-21.15 6.23-14.77 6.42-23.14 6.02-40.4-.39-16.78-8.43-31.94-22.26-31.94h-24.92v27.72c0 14.35-12.31 26.24-27.27 26.24H101.8c-12.52 0-24.16 7.497-27.27 21.13-4.38 18.25-4.71 32.016 0 52.57 5.47 23.86 20.12 32.41 42.77 32.61 17.39-.08 34.31-1.572 48.31-4.195 21.48-4.095 25.03-11.598 25.03-25.684v-18.266h-50.06v-6.095h70.28c14.32 0 26.02-7.873 31.41-21.15 5.77-14.066 6.02-22.692 6.02-40.404 0-17.711-8.43-31.948-22.26-31.948h-24.92v27.72c0 14.35-12.31 26.24-27.27 26.24H87.01zm104.8 32.154c5.78 0 10.47 4.71 10.47 10.563 0 5.872-4.69 10.614-10.47 10.614-5.78 0-10.47-4.742-10.47-10.614 0-5.853 4.69-10.563 10.47-10.563zm23.22 50.016c5.78 0 10.47 4.773 10.47 10.654 0 5.84-4.69 10.542-10.47 10.542-5.78 0-10.47-4.702-10.47-10.542 0-5.88 4.69-10.654 10.47-10.654zm23.22-50.016c5.78 0 10.47 4.71 10.47 10.563 0 5.872-4.69 10.614-10.47 10.614-5.78 0-10.47-4.742-10.47-10.614 0-5.852 4.69-10.563 10.47-10.563z"/></svg>
